<svg width="40" height="40" viewBox="0 0 40 40" fill="none" xmlns="http://www.w3.org/2000/svg">
<rect width="40" height="40" rx="10" fill="#EBEBEB"/>
<path fill-rule="evenodd" clip-rule="evenodd" d="M20.5863 7.66678C26.3624 7.66678 29.2504 7.66678 31.0442 9.38588C31.6618 9.9777 32.0674 10.694 32.3333 11.604L12.4417 30.6668C11.4921 30.412 10.7446 30.0233 10.1271 29.4315C8.33325 27.7135 8.33325 24.9447 8.33325 19.4093C8.33325 13.8739 8.33325 11.1062 10.1271 9.38588C11.9234 7.66678 14.8102 7.66678 20.5863 7.66678ZM12.6218 15.6012C12.6218 17.6972 13.9905 20.1432 16.1262 21.018C16.6236 21.2211 17.1971 21.2211 17.6946 21.018C19.8303 20.1432 21.1989 17.6972 21.1989 15.6012C21.1989 13.4887 19.2789 11.7766 16.9104 11.7766C14.5419 11.7766 12.6218 13.4887 12.6218 15.6012Z" fill="url(#paint0_linear_2576_2169)"/>
<path opacity="0.5" d="M32.1997 13.6668C32.3333 15.1975 32.3333 17.107 32.3333 19.5276C32.3333 24.5459 32.3333 27.3634 31.1352 29.1795L23.9092 21.9554L32.1997 13.6668ZM29.8473 30.4674L22.6238 23.2434L14.3333 31.532C15.8651 31.6668 17.7745 31.6668 20.1961 31.6668C25.2141 31.6668 28.0314 31.6668 29.8473 30.4674Z" fill="url(#paint1_linear_2576_2169)"/>
<g clip-path="url(#clip0_2576_2169)">
<path d="M16.8333 10.6668C14.0764 10.6668 11.8333 12.8202 11.8333 15.4638C11.8186 18.5951 14.9815 21.2932 16.2865 22.2753C16.6117 22.5201 17.0523 22.5202 17.3758 22.273C18.6734 21.2817 21.8476 18.5414 21.8332 15.4668C21.8332 12.8202 19.5901 10.6668 16.8333 10.6668ZM16.8333 17.8668C15.452 17.8668 14.3333 16.7928 14.3333 15.4668C14.3333 14.1408 15.452 13.0668 16.8333 13.0668C18.2145 13.0668 19.3332 14.1408 19.3332 15.4668C19.3332 16.7928 18.2145 17.8668 16.8333 17.8668Z" fill="#F55141"/>
</g>
<defs>
<linearGradient id="paint0_linear_2576_2169" x1="20.3333" y1="7.66678" x2="20.3333" y2="30.6668" gradientUnits="userSpaceOnUse">
<stop stop-color="#ADD99D"/>
<stop offset="1" stop-color="#4AB523"/>
</linearGradient>
<linearGradient id="paint1_linear_2576_2169" x1="23.3333" y1="13.6668" x2="23.3333" y2="31.6668" gradientUnits="userSpaceOnUse">
<stop stop-color="#6ACCFF"/>
<stop offset="1" stop-color="#0050BE"/>
</linearGradient>
<clipPath id="clip0_2576_2169">
<rect x="10.3333" y="10.6668" width="14" height="14" rx="7" fill="white"/>
</clipPath>
</defs>
</svg>
