<svg width="104" height="40" viewBox="0 0 104 40" fill="none" xmlns="http://www.w3.org/2000/svg">
<path d="M0 16C0 7.16344 7.16344 0 16 0H84C95.0457 0 104 8.95431 104 20C104 31.0457 95.0457 40 84 40H0V16Z" fill="#00A8FF"/>
<path d="M34.8906 14.7969H25.8906V13.7812H34.8906V14.7969ZM37.2188 24.2969H24.5625V23.2812H37.2188V24.2969ZM28.9219 23.6719H27.7031V18.7031H28.9219V23.6719ZM35.7188 15.4062C35.7135 16.1875 35.7005 16.8516 35.6797 17.3984C35.6641 17.9453 35.6198 18.5651 35.5469 19.2578C35.4792 19.9505 35.3698 20.6927 35.2188 21.4844L34.0156 21.3438C34.1667 20.599 34.276 19.8906 34.3438 19.2188C34.4167 18.5417 34.4609 17.9453 34.4766 17.4297C34.4974 16.9089 34.5104 16.2396 34.5156 15.4219V15.3281V13.7812H35.7188V15.3281V15.4062ZM32.375 23.6719H31.1719V18.7031H32.375V23.6719ZM49.2344 23.25H48V12.375H49.2344V23.25ZM51.3125 18.2812H48.7188V17.25H51.3125V18.2812ZM49.7344 25.9688H40.4062V24.9375H49.7344V25.9688ZM41.6406 25.2656H40.4062V22.5156H41.6406V25.2656ZM43.3125 21.0625H42.0938V19.1719H43.3125V21.0625ZM38.3281 20.6406C40.026 20.6354 41.599 20.6016 43.0469 20.5391C44.5 20.4714 45.8646 20.3385 47.1406 20.1406L47.25 21.0156C46.0052 21.25 44.7083 21.4089 43.3594 21.4922C42.0156 21.5703 40.5156 21.6198 38.8594 21.6406C38.7708 21.6406 38.7057 21.6406 38.6641 21.6406C38.6224 21.6406 38.5573 21.6406 38.4688 21.6406L38.3281 20.6406ZM46.7188 14.6719H38.6719V13.75H46.7188V14.6719ZM42.6875 15.2812C43.3385 15.2812 43.9089 15.3646 44.3984 15.5312C44.8932 15.6979 45.2734 15.9453 45.5391 16.2734C45.8099 16.5964 45.9479 16.9792 45.9531 17.4219C45.9479 17.8542 45.8099 18.2318 45.5391 18.5547C45.2734 18.8724 44.8932 19.1172 44.3984 19.2891C43.9089 19.4609 43.3385 19.5469 42.6875 19.5469C42.0365 19.5469 41.4661 19.4583 40.9766 19.2812C40.4922 19.1042 40.1146 18.8594 39.8438 18.5469C39.5729 18.2292 39.4375 17.8542 39.4375 17.4219C39.4375 16.9844 39.5729 16.6016 39.8438 16.2734C40.1146 15.9453 40.4922 15.6979 40.9766 15.5312C41.4661 15.3646 42.0365 15.2812 42.6875 15.2812ZM42.6875 16.1562C42.2656 16.1562 41.8958 16.2057 41.5781 16.3047C41.2656 16.4036 41.026 16.5495 40.8594 16.7422C40.6927 16.9349 40.6094 17.1615 40.6094 17.4219C40.6094 17.6719 40.6927 17.8906 40.8594 18.0781C41.026 18.2656 41.2656 18.4115 41.5781 18.5156C41.8958 18.6198 42.2656 18.6719 42.6875 18.6719C43.1094 18.6719 43.4766 18.6198 43.7891 18.5156C44.1068 18.4115 44.3516 18.2656 44.5234 18.0781C44.6953 17.8906 44.7812 17.6719 44.7812 17.4219C44.7812 17.1615 44.6979 16.9349 44.5312 16.7422C44.3646 16.5495 44.1198 16.4036 43.7969 16.3047C43.4792 16.2057 43.1094 16.1562 42.6875 16.1562ZM43.3125 14.1875H42.0938V12.3438H43.3125V14.1875ZM62.9688 26.2656H61.75V12.375H62.9688V26.2656ZM65.2969 19.125H62.6875V18.1094H65.2969V19.125ZM60.4062 15.625H52.1406V14.6094H60.4062V15.625ZM56.3438 16.7812C56.9896 16.7812 57.5703 16.9167 58.0859 17.1875C58.6016 17.4583 59.0052 17.8359 59.2969 18.3203C59.5938 18.8047 59.7448 19.3542 59.75 19.9688C59.7448 20.5885 59.5938 21.1406 59.2969 21.625C59.0052 22.1042 58.6016 22.4792 58.0859 22.75C57.5703 23.0208 56.9896 23.1562 56.3438 23.1562C55.6927 23.1562 55.1068 23.0208 54.5859 22.75C54.0703 22.4792 53.6667 22.1042 53.375 21.625C53.0833 21.1406 52.9375 20.5885 52.9375 19.9688C52.9375 19.3542 53.0833 18.8047 53.375 18.3203C53.6667 17.8359 54.0703 17.4583 54.5859 17.1875C55.1068 16.9167 55.6927 16.7812 56.3438 16.7812ZM56.3438 17.8125C55.9167 17.8125 55.5339 17.9036 55.1953 18.0859C54.8568 18.2682 54.5911 18.526 54.3984 18.8594C54.2057 19.1875 54.1094 19.5573 54.1094 19.9688C54.1094 20.3854 54.2057 20.7552 54.3984 21.0781C54.5911 21.401 54.8568 21.6562 55.1953 21.8438C55.5339 22.026 55.9167 22.1146 56.3438 22.1094C56.7656 22.1146 57.1458 22.026 57.4844 21.8438C57.8281 21.6562 58.0938 21.401 58.2812 21.0781C58.474 20.7552 58.5729 20.3854 58.5781 19.9688C58.5729 19.5573 58.474 19.1875 58.2812 18.8594C58.0938 18.526 57.8281 18.2682 57.4844 18.0859C57.1458 17.9036 56.7656 17.8125 56.3438 17.8125ZM56.9375 15.0781H55.7188V12.5469H56.9375V15.0781ZM77.5312 26.2656H76.2969V12.375H77.5312V26.2656ZM73.4219 13.8906C73.4167 15.2656 73.1875 16.5521 72.7344 17.75C72.2865 18.9479 71.5781 20.0521 70.6094 21.0625C69.6406 22.0677 68.401 22.9323 66.8906 23.6562L66.2188 22.6562C67.5573 22.0208 68.6693 21.2708 69.5547 20.4062C70.4453 19.5417 71.1068 18.5833 71.5391 17.5312C71.9766 16.474 72.1979 15.3229 72.2031 14.0781V13.8906H73.4219ZM72.7031 14.8906H66.8594V13.8906H72.7031V14.8906Z" fill="white"/>
</svg>
