<svg width="40" height="40" viewBox="0 0 40 40" fill="none" xmlns="http://www.w3.org/2000/svg">
<rect width="40" height="40" rx="10" fill="#EBEBEB"/>
<path d="M6.74668 25.3041C6.74668 25.3041 4.91572 24.599 5.00303 23.1032C5.09033 21.6048 4.99804 18.6081 5.00053 17.8149C5.00303 17.0216 5.35226 15.347 6.31014 15.347C7.26803 15.347 7.00611 16.669 7.61726 17.3742C8.22841 18.0793 9.62284 18.52 10.7553 18.1674C11.8878 17.8149 13.9807 14.5537 14.764 13.7605C15.5473 12.9672 17.3782 12.3502 19.8179 14.2893C22.2575 16.2284 25.5702 18.4646 27.1367 19.152C28.7058 19.842 31.5819 20.3684 32.889 20.6328C34.1962 20.8972 35.154 21.1616 34.9794 22.3956C34.8048 23.6295 34.6227 24.8634 33.9916 25.3041C33.3605 25.7448 6.74419 25.3041 6.74419 25.3041H6.74668Z" fill="url(#paint0_linear_2576_2161)"/>
<path d="M20.9521 16.4599C20.9199 16.5124 20.7959 16.4949 20.6769 16.4224C20.5579 16.3474 20.486 16.2449 20.5182 16.1924L21.2199 15.0399C21.2521 14.9874 21.3761 15.0049 21.4951 15.0774C21.6141 15.1524 21.686 15.2549 21.6537 15.3074L20.9521 16.4599Z" fill="#FFF1DE"/>
<path d="M22.1669 17.2099C22.1346 17.2624 22.0107 17.2449 21.8916 17.1724C21.7702 17.0974 21.7007 16.9949 21.733 16.9424L22.4346 15.7899C22.4669 15.7374 22.5908 15.7549 22.7098 15.8274C22.8288 15.9024 22.9007 16.0049 22.8685 16.0574L22.1669 17.2099Z" fill="#FFF1DE"/>
<path d="M23.3819 17.9626C23.3497 18.0151 23.2257 17.9976 23.1067 17.9251C22.9853 17.8501 22.9158 17.7476 22.9481 17.6951L23.6497 16.5426C23.6819 16.4901 23.8059 16.5076 23.9249 16.5801C24.0439 16.6551 24.1158 16.7576 24.0836 16.8101L23.3819 17.9626Z" fill="#FFF1DE"/>
<path d="M24.5991 18.7126C24.5668 18.7651 24.4429 18.7476 24.3239 18.6751C24.2048 18.6001 24.1329 18.4976 24.1652 18.4451L24.8668 17.2926C24.8991 17.2401 25.023 17.2576 25.142 17.3301C25.261 17.4051 25.3329 17.5076 25.3007 17.5601L24.5991 18.7126Z" fill="#FFF1DE"/>
<path d="M13.7136 15.0637C15.4101 16.4941 16.4918 18.6427 16.4919 21.0422C16.4919 22.6638 15.9969 24.1708 15.1531 25.4192C14.5609 25.4124 13.9842 25.4046 13.4285 25.3977C14.4804 24.2529 15.1257 22.7225 15.1257 21.0422C15.1256 19.0834 14.2489 17.3285 12.8718 16.1516C13.1638 15.7853 13.4496 15.4101 13.7136 15.0637Z" fill="#FFF1DE"/>
<path d="M6.31243 27C6.31243 27 5.0059 26.9173 5.0025 26.1492C5 25.5803 5.00253 25.2157 5.0025 24.4865C5.0025 23.8788 4.99998 23.271 5 22.8312C5.0025 22.2987 5.61614 22.4908 6.31243 22.8312C7.01122 23.1715 8.31114 24.4986 9.36058 24.2434C10.4075 23.9881 11.6148 23.271 12.3661 23.271C13.1175 23.271 13.8689 24.0003 15.1287 24.3626C16.2292 24.679 23.3339 25.2134 25.4303 25.1283C27.5242 25.0432 34.5643 23.513 34.822 22.7633C35.0796 22.0136 35.1382 24.8248 34.4394 25.5055C33.7406 26.1861 32.3406 27 31.0157 27H6.31243Z" fill="#424242"/>
<defs>
<linearGradient id="paint0_linear_2576_2161" x1="20" y1="13" x2="20" y2="25.5" gradientUnits="userSpaceOnUse">
<stop stop-color="#CFD6E5"/>
<stop offset="1" stop-color="#9F72BE"/>
</linearGradient>
</defs>
</svg>
