<svg width="40" height="40" viewBox="0 0 40 40" fill="none" xmlns="http://www.w3.org/2000/svg">
<rect width="40" height="40" rx="10" fill="#EBEBEB"/>
<g clip-path="url(#clip0_2576_2153)">
<path d="M34 27.989C34 29.1002 33.1054 30 32.0005 30H7.9995C6.89464 30 6 29.1002 6 27.989V12.011C6 10.8998 6.89464 10 7.9995 10H31.9982C33.103 10 33.9977 10.8998 33.9977 12.011V27.989H34Z" fill="url(#paint0_linear_2576_2153)"/>
<path d="M34 14.5718H6V18.8242H34V14.5718Z" fill="#424242"/>
<path d="M9.27026 25.0358C9.27026 25.9389 10.0023 26.6804 10.9054 26.6804C11.8084 26.6804 12.5405 25.9389 12.5405 25.0358C12.5405 24.1328 11.8084 23.3913 10.9054 23.3913C10.0023 23.3913 9.27026 24.1328 9.27026 25.0358Z" fill="#424242"/>
<path d="M20.9468 25.7406H14.4118C14.1523 25.7406 13.9419 25.951 13.9419 26.2105C13.9419 26.47 14.1523 26.6804 14.4118 26.6804H20.9468C21.2063 26.6804 21.4167 26.47 21.4167 26.2105C21.4167 25.951 21.2063 25.7406 20.9468 25.7406Z" fill="#424242"/>
<path d="M23.7498 23.3913H14.4118C14.1523 23.3913 13.9419 23.6016 13.9419 23.8612C13.9419 24.1207 14.1523 24.331 14.4118 24.331H23.7498C24.0093 24.331 24.2197 24.1207 24.2197 23.8612C24.2197 23.6016 24.0093 23.3913 23.7498 23.3913Z" fill="#424242"/>
</g>
<defs>
<linearGradient id="paint0_linear_2576_2153" x1="20" y1="10" x2="20" y2="30" gradientUnits="userSpaceOnUse">
<stop stop-color="#FFED98"/>
<stop offset="1" stop-color="#FFDC36"/>
</linearGradient>
<clipPath id="clip0_2576_2153">
<rect width="28" height="20" fill="white" transform="translate(6 10)"/>
</clipPath>
</defs>
</svg>
